<?xml version="1.0" encoding="utf-8"?>
<!-- Generator: Adobe Illustrator 15.0.0, SVG Export Plug-In . SVG Version: 6.00 Build 0)  -->
<!DOCTYPE svg PUBLIC "-//W3C//DTD SVG 1.1//EN" "http://www.w3.org/Graphics/SVG/1.1/DTD/svg11.dtd">
<svg version="1.1" id="Layer_1" xmlns="http://www.w3.org/2000/svg" xmlns:xlink="http://www.w3.org/1999/xlink" x="0px" y="0px"
	 width="410px" height="387px" viewBox="-49.5 0 410 387" enable-background="new -49.5 0 410 387" xml:space="preserve">
<polygon fill="#CEF8FF" points="-49.307,232.803 55.56,199.934 55.56,149.389 -49.307,182.257 "/>
<polygon fill="#FFFFFF" points="-9.258,210.646 -9.258,180.58 -38.952,189.886 -38.952,219.952 "/>
<g>
	<path fill="#3074FE" d="M-37.155,254.703v22.077c0,0.882,0.397,1.545,1.022,1.879l0,0h0.002c0.209,0.112,0.445,0.186,0.7,0.219
		l13.457,4.18l-0.472-8.007l6.832-2.141v-16.4L-37.155,254.703z"/>
	<path fill="#92F1FF" d="M-16.859,248.854c-0.077-0.028-0.156-0.055-0.239-0.074l-0.015-0.005l0,0
		c-0.41-0.095-0.879-0.076-1.381,0.079l-18.661,5.849l13.762,4.244l19.871-5.96L-16.859,248.854z"/>
	<path fill="#4FB6FE" d="M-4.732,253.099l-18.661,5.849v22.075c0,1.589,1.289,2.477,2.878,1.98l18.662-5.85v-22.076
		C-1.853,253.485-3.143,252.602-4.732,253.099z"/>
</g>
<path fill="#CEF8FF" d="M152.808,343.725c0-15.224,46.158-27.56,103.095-27.56c56.938,0,103.097,12.336,103.097,27.56
	c0,15.221-46.158,27.56-103.097,27.56C198.966,371.284,152.808,358.945,152.808,343.725z"/>
<path fill="#3074FE" d="M183.204,4.528l-11.959-3.896c-0.976-0.368-2.157-0.395-3.432,0.004L18.232,47.515
	c-3.344,1.046-6.054,4.604-6.054,7.946v292.754c0,1.742,0.74,3.075,1.916,3.812l0,0l0,0c0.557,0.348,13.764,4.468,13.764,4.468
	l2.683-9.778l134.322-42.099c3.342-1.044,6.053-4.602,6.053-7.947V15.346L183.204,4.528z"/>
<path fill="#92F1FF" d="M187.037,301.714c0,3.344-2.712,6.9-6.055,7.948l-149.58,46.881c-3.344,1.044-6.054-0.818-6.054-4.162
	V59.627c0-3.343,2.71-6.901,6.054-7.948l149.58-46.878c3.343-1.045,6.055,0.817,6.055,4.161V301.714z"/>
<polygon fill="#4FB6FE" points="176.433,285.014 33.951,329.671 33.951,79.524 176.433,34.866 "/>
<polygon fill="#13217D" points="33.804,295.49 176.527,250.956 176.527,149.775 33.804,194.311 "/>
<path fill="#3074FE" d="M125.398,35.265c0,1.755-1.424,3.625-3.179,4.175l-28.058,8.776c-1.756,0.549-3.18-0.43-3.18-2.185l0,0
	c0-1.757,1.424-3.625,3.18-4.176l28.058-8.776C123.975,32.531,125.398,33.508,125.398,35.265L125.398,35.265z"/>
<path fill="#3074FE" d="M169.201,21.997c0,2.451-1.986,5.061-4.438,5.827c-2.452,0.768-4.44-0.598-4.44-3.051
	c0-2.451,1.988-5.059,4.44-5.827C167.215,18.18,169.201,19.545,169.201,21.997z"/>
<g>
	<path fill="#F43F7E" d="M61.317,133.489c0,17.468-14.16,36.056-31.628,41.519c-17.467,5.463-31.628-4.269-31.628-21.736
		c0-17.468,14.161-36.057,31.628-41.52C47.158,106.289,61.317,116.021,61.317,133.489z"/>
	<g>
		<path fill="#FFFFFF" d="M27.673,163.215c1.694-0.602,3.251-1.974,4.178-3.687l15.621-28.884c1.581-2.924,0.894-5.96-1.536-6.781
			c-2.431-0.821-5.68,0.883-7.261,3.805l-11.468,21.209l-6.662-7.054c-1.708-1.808-4.99-1.295-7.332,1.146
			c-2.341,2.439-2.855,5.882-1.148,7.69l11.148,11.8c1.017,1.078,2.654,1.369,4.378,0.786
			C27.619,163.234,27.646,163.224,27.673,163.215z"/>
	</g>
</g>
<g>
	<path fill="#4FB6FE" d="M-4.496,47.765c0,10.831-8.778,22.354-19.609,25.742c-10.829,3.387-19.608-2.647-19.608-13.478
		c0-10.829,8.779-22.354,19.608-25.741C-13.274,30.903-4.496,36.936-4.496,47.765z"/>
	<g>
		<path fill="#FFFFFF" d="M-25.355,66.195c1.05-0.373,2.016-1.224,2.59-2.286l9.685-17.908c0.979-1.813,0.554-3.696-0.952-4.205
			c-1.507-0.508-3.521,0.548-4.501,2.36l-7.11,13.147l-4.131-4.373c-1.059-1.12-3.094-0.802-4.546,0.711
			c-1.451,1.511-1.77,3.647-0.711,4.768l6.912,7.316c0.63,0.668,1.645,0.85,2.714,0.486C-25.389,66.207-25.372,66.201-25.355,66.195
			z"/>
	</g>
</g>
<g>
	<path fill="#FFFFFF" d="M144.021,95.508c0,2.228-1.807,4.6-4.035,5.297l-61.578,19.262c-2.229,0.698-4.036-0.544-4.036-2.772l0,0
		c0-2.229,1.807-4.602,4.036-5.299l61.578-19.261C142.214,92.036,144.021,93.278,144.021,95.508L144.021,95.508z"/>
	<path fill="#FFFFFF" d="M144.021,110.46c0,2.229-1.807,4.601-4.035,5.298l-61.578,19.263c-2.229,0.697-4.036-0.545-4.036-2.774l0,0
		c0-2.228,1.807-4.6,4.036-5.298l61.578-19.262C142.214,106.991,144.021,108.232,144.021,110.46L144.021,110.46z"/>
	<path fill="#FFFFFF" d="M116.91,133.895c0,2.229-1.807,4.601-4.035,5.297l-34.467,10.782c-2.229,0.697-4.036-0.544-4.036-2.774l0,0
		c0-2.229,1.807-4.6,4.036-5.297l34.467-10.782C115.104,130.425,116.91,131.666,116.91,133.895L116.91,133.895z"/>
</g>
<path fill="#13217D" d="M174.156,33.422L36.176,76.477c-1.23,0.383-2.226,1.691-2.226,2.919v19.033l142.43-44.444V34.953
	C176.381,33.724,175.386,33.039,174.156,33.422z"/>
<g>
	<path fill="#F8A786" d="M349.379,342.141c-2.186-0.916-8.108-2.705-13.512-3.182c-1.951-0.172-3.765-0.73-5.289-1.368
		c-1.279-1.55-13.848-33.609-18.956-43.219c-9.804-18.441-21.427-36.039-34.47-52.354c-3.743-4.645-11.106-4.415-14.511,0.511
		c-2.328,3.364-2.056,8.019,0.639,11.097c2.924,3.335,5.943,6.579,8.805,9.971c7.019,8.323,13.826,16.884,19.999,25.859
		c6.219,9.043,11.989,18.393,17.508,27.881c2.678,4.602,10.31,20.661,10.976,21.824c0.275,0.586,0.595,1.136,1.008,1.615
		c0.389,0.569,0.828,1.161,1.336,1.76c2.226,2.622,10.729,3.895,12.002,3.378c1.272-0.516-0.238-2.347,3.873-1.509
		c4.112,0.833,9.878,1.189,10.474,0.911c0.596-0.276,1.59-0.477,2.026-0.833C351.724,344.125,351.565,343.052,349.379,342.141z"/>
	<path fill="#13217D" d="M104.14,335.801c0,0-7.23,1.599-15.43,0.561c-8.199-1.036-16.297,0.291-16.054,6.107
		c0.243,5.815,10.099,12.332,24.546,8.316c14.448-4.016,13.25-7.355,12.589-10.663C109.132,336.816,105.873,334.886,104.14,335.801z
		"/>
	<path fill="#F8A786" d="M115.577,340.006c0,0-8.971,5.104-12.237,6.116c-6.013,1.867-7.021-8.108-4.334-9.606l11.142-6.237
		C112.834,328.78,118.264,338.51,115.577,340.006z"/>
	<path fill="#13217D" d="M209.677,333.142c-8.759-5.576-18.288-10.246-28.148-13.562c-4.799-1.615-13.043,0.762-15.646,1.599
		c-5.313,1.707-10.528,3.715-15.691,5.825c-9.651,3.951-19.142,8.292-28.535,12.815c-3.591,1.729-7.157,3.508-10.721,5.29
		c-2.881,1.44-9.945-11.561-7.116-13.27c1.735-1.049,3.421-2.177,5.142-3.247c8.254-5.145,16.608-10.135,25.098-14.883
		c9.609-5.372,19.425-10.656,29.736-14.565c5.452-2.067,11.007-3.662,16.872-3.463c-0.031,0.012-0.058,0.009-0.079-0.009
		c8.715,0.792,17.229,4.046,25.354,7.118c9.648,3.648,19.134,7.726,28.538,11.958c3.832,1.727,7.657,3.477,11.452,5.283
		c3.429,1.635,20.888-3.938,15.809,8.996C259.922,333.665,240.184,352.56,209.677,333.142z"/>
	<path fill="#13217D" d="M252.032,307.359c-5.595-6.817-11.404-13.464-17.396-19.937c-7.217-7.79-14.698-15.451-22.928-22.186
		c-6.431-5.26-13.517-10.267-21.946-11.326c-3.287-0.414-7.463,0.817-10.51,2.626c-4.204,2.494-7.492,6.338-10.262,10.301
		c-6.143,8.793-10.543,18.825-14.578,28.72c-3.694,9.061-7.039,18.286-10.031,27.604c-0.449,1.394-1.041,2.863-1.487,4.36
		c-0.649,2.183,19.388-6.277,21.298-10.274c4.665-9.763,9.621-19.465,15.502-28.562c1.488-2.299,3.046-4.56,4.735-6.719
		c0.791-1.011,1.614-2.001,2.488-2.941c0.394-0.424,0.798-0.835,1.217-1.231c0.378-0.355,0.92,0.309,1.28,0.577
		c4.308,3.194,8.039,7.203,11.614,11.173c7.216,8.018,13.815,16.601,20.156,25.318c2.396,3.296,4.756,6.619,7.046,9.989
		c2.168,3.192,5.39,5.494,9.177,6.326c8.129,1.791,16.362-3.729,17.766-11.94C255.893,315.035,254.736,310.655,252.032,307.359z"/>
	<path fill="#3074FE" d="M276.706,245.855c1.132,4.998,1.11,4.963,1.488,10.062c0.4,5.945,0.423,11.88,0.447,17.844
		c0.06,15.074-8.219,47.334-18.353,58.532c-10.256,11.333-37.921-25.115-33.056-33.195c2.915-4.846,5.457-9.759,7.524-15.028
		c4.255-11.102,6.571-25.98,7.763-37.78C243.685,234.764,274.654,234.927,276.706,245.855z"/>
	<path fill="#F8A786" d="M247.875,253.552c-8.712,0.05-17.428,0.088-26.14,0.26c-5.386,0.106-10.778,0.146-16.163,0.321
		c-2.747,0.087-5.493,0.239-8.237,0.36c-2.698,0.117-5.413,0.147-8.094,0.465c-3.436,0.407-6.812,1.298-10.129,2.257
		c-5.025,1.454-26.216,5.945-28.837,12.805c-0.682,1.786-5.811-4.615-6-6.519c-0.429-4.318,4.136-5.811,7.25-7.36
		c4.2-2.092,8.447-4.093,12.751-5.966c7.835-3.407,15.867-6.547,24.303-8.07c1.771-0.321,3.59-0.425,5.377-0.613
		c2.676-0.284,5.351-0.567,8.026-0.849c5.391-0.571,10.807-0.938,16.21-1.375c9.449-0.763,18.911-1.414,28.37-2.042
		c1.876-0.124,3.657,0.055,5.327,1.005c2.09,1.188,3.581,3.283,4.011,5.649C256.8,248.82,252.908,253.541,247.875,253.552z"/>
	<path fill="#3074FE" d="M300.696,271.17c2.325,3.411-13.873,14.835-17.458,10.032c-6.277-8.404-12.627-16.785-19.634-24.601
		c-1.912-2.133-3.629-4.205-4.104-7.141c-0.501-3.092,0.963-13.492,4.098-13.493C281.599,235.965,299.312,269.139,300.696,271.17z"
		/>
	<path fill="#3074FE" d="M248.508,256.283l-15.938-0.308c-5.065-0.096-5.279-18.448-0.69-18.889h0.012
		c0,0,19.824-2.524,30.216-1.346c7.452,0.845-3.896,3.465-3.375,9.179s-3.545,10.78-9.081,11.317
		c-0.377,0.038-0.751,0.053-1.121,0.047L248.508,256.283z"/>
	<g>
		<path fill="#F8A786" d="M272.878,242.282c3.882-12.157,4.214-22.593,4.226-23.032c0.09-3.169-2.408-5.811-5.576-5.899
			c-3.166-0.088-5.804,2.406-5.898,5.57c-0.006,0.132-1.726,10.399-5.081,20.914C259.34,243.625,271.753,245.812,272.878,242.282z"
			/>
	</g>
	<path fill="#F8A786" d="M255.654,231.226c8.322,5.052,22.027,2.561,28.163-7.722c6.138-10.285,5.175-22.698-3.328-27.413
		c-12.303-6.821-21.256,3.552-25.252,14.834C252.129,219.696,252.017,229.02,255.654,231.226z"/>
	<path fill="#13217D" d="M278.009,234.104c-2.265,1.416-5.803,3.203-5.004-2.439c0.442-3.122,1.305-5.463,3.436-8.055
		c3.98-4.84,1.109-8.546-1.66-6.742c-3.426,2.228-5.748-0.369-4.174-2.15c4.19-4.745-10.982-3.451-13.855-9.683
		c-5.598-12.129,9.593-25.43,26.772-13.223C290.255,196.593,301.799,219.248,278.009,234.104z"/>
	<path fill="#F8A786" d="M256.029,210.789c0,0-2.36,1.711-3.341,3.189c-0.979,1.483,0.934,2.615,1.806,2.851
		C255.368,217.063,256.029,210.789,256.029,210.789z"/>
	<g>
		<path fill="#92F1FF" d="M145.848,307.146c-0.235,0-0.459-0.136-0.56-0.365c-0.136-0.31,0.005-0.67,0.313-0.806
			c0.824-0.362,1.688-0.745,2.583-1.142c5.485-2.432,12.312-5.457,18.818-7.49c0.319-0.103,0.664,0.078,0.764,0.4
			c0.102,0.323-0.078,0.665-0.4,0.766c-6.439,2.011-13.229,5.021-18.687,7.441c-0.897,0.397-1.761,0.78-2.587,1.144
			C146.012,307.13,145.929,307.146,145.848,307.146z"/>
	</g>
	<path fill="#F8A786" d="M147.622,258.098c0,0-6.067,4.221-9.323,9.121c-3.254,4.906-2.934,6.432-2.612,7.638
		c0.322,1.206-0.746,4.259-0.192,5.506c0.554,1.246,1.118,4.06,2.162,4.502c1.045,0.44,2.412-2.049,1.769-4.26
		c-0.644-2.212,2.452-6.39,4.421-7.354c1.97-0.966,1.407,1.284,0.563,2.251c-0.844,0.963-2.13,3.857-1.647,5.145
		c0.481,1.283,1.647,1.326,3.293-2.172c1.649-3.496,4.423-4.864,4.303-10.287c-0.121-5.425,5.184-5.989,5.184-5.989l-5.063-5.667
		L147.622,258.098z"/>
	<g>
		<path fill="#FFFFFF" d="M281.6,280.696c-0.204,0-0.404-0.103-0.52-0.289c-3.145-5.062-6.613-9.75-6.648-9.797
			c-0.2-0.27-0.145-0.652,0.127-0.853c0.27-0.202,0.653-0.146,0.854,0.127c0.035,0.045,3.534,4.773,6.706,9.879
			c0.178,0.285,0.09,0.661-0.197,0.84C281.82,280.665,281.709,280.696,281.6,280.696z"/>
	</g>
</g>
<path fill="#4FB6FE" d="M259.85,271.431c-2.229,6.939-7.402,10.646-11.553,8.278c-4.151-2.367-5.708-9.91-3.478-16.85
	c2.229-6.938,7.404-10.646,11.553-8.277C260.522,256.95,262.079,264.495,259.85,271.431z"/>
<g>
	<path fill="#FFFFFF" d="M249.69,275.503c-0.396-0.263-0.656-0.83-0.695-1.527l-0.653-11.762c-0.066-1.19,0.518-2.398,1.305-2.701
		c0.787-0.301,1.478,0.42,1.543,1.61l0.48,8.635l2.774-2.754c0.712-0.705,1.567-0.463,1.908,0.544
		c0.341,1.004,0.04,2.392-0.67,3.097l-4.645,4.607c-0.424,0.416-0.922,0.517-1.328,0.263
		C249.703,275.512,249.698,275.507,249.69,275.503z"/>
</g>
<g>
	<path fill="#CEF8FF" d="M-24.479,209.013c0.913-0.324,1.75-1.064,2.25-1.988l8.41-15.548c0.852-1.576,0.481-3.211-0.827-3.653
		c-1.308-0.441-3.059,0.477-3.909,2.05l-6.175,11.417l-3.587-3.796c-0.919-0.975-2.687-0.698-3.947,0.616
		c-1.26,1.314-1.537,3.167-0.617,4.14l6.002,6.353c0.547,0.582,1.428,0.738,2.357,0.424
		C-24.507,209.021-24.493,209.016-24.479,209.013z"/>
</g>
<g>
	<g>
		<path fill="#FFFFFF" d="M119.818,223.216c0,1.455-1.18,3.005-2.634,3.461l-22.51,7.039c-1.454,0.455-2.634-0.354-2.634-1.811l0,0
			c0-1.455,1.181-3.004,2.634-3.459l22.51-7.041C118.638,220.95,119.818,221.761,119.818,223.216L119.818,223.216z"/>
	</g>
	<g>
		<path fill="#FFFFFF" d="M119.818,213.291c0,1.456-1.18,3.004-2.634,3.461l-22.51,7.039c-1.454,0.456-2.634-0.353-2.634-1.811l0,0
			c0-1.454,1.181-3.004,2.634-3.459l22.51-7.042C118.638,211.025,119.818,211.835,119.818,213.291L119.818,213.291z"/>
	</g>
</g>
<g>
	<path fill="#4FB6FE" d="M102.619,250.691c-14.68,3.289-26.193-5.433-26.193-20.452c0-6.485,2.147-13.14,5.768-19.083l-8.275-4.693
		c-5.319,8.427-8.5,17.945-8.5,27.22c0,21.101,16.435,33.214,37.201,28.045V250.691z"/>
	<path fill="#F43F7E" d="M85.132,206.908c5.183-6.665,12.256-11.991,20.06-14.43c9.78-3.06,18.414-0.875,23.61,4.958l9.676-8.364
		c-7.104-8.623-19.354-11.959-33.286-7.603c-11.096,3.471-21.126,11.155-28.341,20.741L85.132,206.908z"/>
	<path fill="#FFFFFF" d="M131.688,201.741c1.461,2.988,2.269,6.526,2.269,10.506c0,15.02-11.512,30.943-26.192,36.836v11.037
		c20.766-7.822,37.2-30.216,37.2-51.315c0-5.909-1.297-11.104-3.608-15.421L131.688,201.741z"/>
</g>
<g>
	<g>
		<path fill="#4FB6FE" d="M235.864,101.758c0,1.456-1.181,3.005-2.636,3.46l-28.658,8.969c-1.455,0.456-2.636-0.355-2.636-1.811l0,0
			c0-1.455,1.181-3.004,2.636-3.459l28.658-8.968C234.684,99.492,235.864,100.303,235.864,101.758L235.864,101.758z"/>
		<path fill="#4FB6FE" d="M247.419,107.914c0,1.456-1.181,3.005-2.637,3.46l-40.212,12.579c-1.455,0.454-2.636-0.356-2.636-1.812
			l0,0c0-1.456,1.181-3.004,2.636-3.459l40.212-12.58C246.238,105.647,247.419,106.459,247.419,107.914L247.419,107.914z"/>
		<path fill="#4FB6FE" d="M229.714,123.217c0,1.456-1.18,3.004-2.634,3.46l-22.51,7.041c-1.455,0.456-2.636-0.355-2.636-1.811l0,0
			c0-1.455,1.181-3.003,2.636-3.46l22.51-7.04C228.534,120.951,229.714,121.761,229.714,123.217L229.714,123.217z"/>
	</g>
	<g>
		<path fill="#3074FE" d="M155.572,111.961v24.865c0,0.994,0.449,1.741,1.151,2.116v0.001l0.002,0
			c0.236,0.125,0.501,0.209,0.791,0.246l15.155,4.708l-0.531-9.019l7.695-2.411v-18.474L155.572,111.961z"/>
		<path fill="#92F1FF" d="M178.434,105.373c-0.087-0.033-0.176-0.061-0.269-0.083l-0.018-0.005l0,0
			c-0.462-0.108-0.991-0.086-1.556,0.09l-21.02,6.587l15.501,4.779l22.381-6.712L178.434,105.373z"/>
		<path fill="#4FB6FE" d="M192.093,110.153l-21.02,6.587v24.865c0,1.792,1.452,2.789,3.243,2.23l21.021-6.588v-24.867
			C195.337,110.59,193.884,109.593,192.093,110.153z"/>
	</g>
	<path fill="#3074FE" d="M197.69,58.522v24.867c0,0.994,0.448,1.74,1.152,2.115v0.002l0.001,0c0.235,0.125,0.502,0.208,0.79,0.244
		l15.156,4.709l-0.531-9.019l7.694-2.411V60.556L197.69,58.522z"/>
	<path fill="#92F1FF" d="M220.551,51.934c-0.086-0.033-0.176-0.06-0.268-0.083l-0.018-0.005l0,0
		c-0.463-0.109-0.992-0.087-1.556,0.089l-21.02,6.586l15.502,4.779l22.381-6.712L220.551,51.934z"/>
	<path fill="#4FB6FE" d="M234.211,56.714l-21.019,6.587v24.867c0,1.792,1.451,2.788,3.241,2.229l21.021-6.588V58.943
		C237.454,57.151,236.001,56.153,234.211,56.714z"/>
	<g>
		<path fill="#FFFFFF" d="M182.236,135.384c0.802-0.284,1.538-0.934,1.976-1.744l7.389-13.664c0.749-1.382,0.424-2.818-0.726-3.207
			c-1.149-0.388-2.687,0.418-3.435,1.8l-5.425,10.032l-3.152-3.336c-0.808-0.856-2.359-0.613-3.466,0.542
			c-1.109,1.154-1.353,2.782-0.544,3.637l5.273,5.583c0.479,0.509,1.255,0.648,2.07,0.372
			C182.211,135.394,182.224,135.388,182.236,135.384z"/>
	</g>
	<path fill="#F43F7E" d="M250.488,55.287c0,7.198-5.836,14.858-13.034,17.109c-7.197,2.251-13.033-1.759-13.033-8.957
		c0-7.199,5.836-14.859,13.033-17.11C244.652,44.078,250.488,48.088,250.488,55.287z"/>
	<g>
		<path fill="#FFFFFF" d="M236.623,67.537c0.699-0.248,1.341-0.813,1.723-1.52l6.437-11.903c0.651-1.204,0.368-2.455-0.633-2.794
			c-1.002-0.338-2.341,0.364-2.993,1.569l-4.726,8.739l-2.744-2.906c-0.704-0.745-2.058-0.535-3.021,0.472
			c-0.965,1.004-1.177,2.423-0.475,3.168l4.595,4.863c0.42,0.443,1.094,0.564,1.805,0.323
			C236.601,67.544,236.613,67.54,236.623,67.537z"/>
	</g>
</g>
<g>
	<polygon fill="#FFFFFF" points="163.459,43.127 163.459,51.945 167.688,50.615 167.688,41.797 	"/>
	<polygon fill="#FFFFFF" points="157.25,53.897 161.479,52.568 161.479,43.75 157.25,45.08 	"/>
	<path fill="#FFFFFF" d="M151.042,49.407l-0.488,0.153c-0.501,0.159-0.907,0.692-0.907,1.192v2.438c0,0.5,0.406,0.779,0.907,0.621
		l0.488-0.153v2.194l4.229-1.331v-8.818l-4.229,1.33V49.407z"/>
</g>
<path fill="#92F1FF" d="M170.935,162.391c0,1.893-1.533,3.907-3.427,4.5c-1.895,0.592-3.428-0.461-3.428-2.355
	s1.533-3.907,3.428-4.5C169.401,159.444,170.935,160.499,170.935,162.391z"/>
<path fill="#FFFFFF" d="M161.377,165.309c0,1.892-1.534,3.908-3.428,4.5c-1.893,0.593-3.427-0.462-3.427-2.356
	c0-1.892,1.534-3.907,3.427-4.5C159.843,162.361,161.377,163.415,161.377,165.309z"/>
<path fill="#FFFFFF" d="M151.819,168.225c0,1.893-1.535,3.908-3.427,4.5c-1.894,0.592-3.428-0.463-3.428-2.355
	c0-1.894,1.534-3.907,3.428-4.5C150.285,165.278,151.819,166.333,151.819,168.225z"/>
<g>
	<g>
		<path fill="#3074FE" d="M263.508,350.052v26.685c0,1.064,0.482,1.869,1.237,2.27v0.002l0.002,0.001
			c0.252,0.136,0.538,0.223,0.847,0.264l16.266,5.052l-0.571-9.678l8.258-2.588v-19.825L263.508,350.052z"/>
		<path fill="#92F1FF" d="M288.041,342.981c-0.093-0.036-0.188-0.065-0.287-0.09l-0.019-0.005l0,0
			c-0.496-0.117-1.063-0.094-1.67,0.096l-22.558,7.069l16.637,5.127l24.017-7.202L288.041,342.981z"/>
		<path fill="#4FB6FE" d="M302.7,348.11l-22.556,7.068v26.686c0,1.923,1.557,2.993,3.479,2.393l22.558-7.07v-26.686
			C306.182,348.581,304.623,347.512,302.7,348.11z"/>
	</g>
	<g>
		<path fill="#3074FE" d="M303.425,362.782c0,6.007-4.595,12.4-10.263,14.279s-10.263-1.465-10.263-7.475
			c0-6.008,4.595-12.403,10.263-14.283C298.83,353.426,303.425,356.773,303.425,362.782z"/>
		<g>
			<path fill="#FFFFFF" d="M292.508,373.006c0.55-0.207,1.056-0.68,1.356-1.269l5.067-9.936c0.513-1.005,0.29-2.049-0.497-2.331
				c-0.789-0.282-1.844,0.304-2.356,1.309l-3.721,7.295l-2.164-2.425c-0.554-0.623-1.619-0.449-2.378,0.392
				c-0.759,0.839-0.928,2.023-0.373,2.645l3.617,4.06c0.331,0.371,0.862,0.473,1.423,0.27
				C292.491,373.012,292.499,373.008,292.508,373.006z"/>
		</g>
	</g>
</g>
<g>
	<path fill="#FFFFFF" d="M72.697,75.923c0,1.59-1.289,3.281-2.878,3.778L45.24,87.39c-1.59,0.498-2.878-0.389-2.878-1.978l0,0
		c0-1.59,1.289-3.281,2.878-3.779l24.579-7.688C71.408,73.448,72.697,74.333,72.697,75.923L72.697,75.923z"/>
</g>
<path fill="#4FB6FE" d="M21.964,225.659c0,1.75-1.418,2.763-3.167,2.26l0,0c-1.75-0.5-3.168-2.324-3.168-4.073v-31.905
	c0-1.75,1.418-2.762,3.168-2.262l0,0c1.75,0.502,3.167,2.327,3.167,4.076V225.659z"/>
</svg>
