<svg id="Layer_1" data-name="Layer 1" xmlns="http://www.w3.org/2000/svg" viewBox="0 0 140 35"><defs><style>.cls-1,.cls-2{fill:#fff;}.cls-2{font-size:19px;font-family:TwCenMT-Regular, Tw Cen MT;}.cls-3{letter-spacing:-0.03em;}.cls-4{letter-spacing:-0.02em;}</style></defs><title>Logo Sticky</title><path class="cls-1" d="M36.82,15.21c-.24-1.59.84-2.62,1.65-3.79,0,1.45,0,2.9,0,4.34,0,.24-.27.65.27.75.14,0,0,.09-.06.13a2.94,2.94,0,0,0,.16,2.73c-.47-.06-.4.28-.4.54,0,1.86,0,3.73,0,5.59a6.14,6.14,0,0,1-.31,1.72,2.94,2.94,0,0,1-2.76,2c-1,0-2,0-3,0a6.09,6.09,0,0,0-3.64,1.11c-1.72,1.19-3.48,2.33-5.2,3.52a2.31,2.31,0,0,1-2.88,0c-1.74-1.2-3.51-2.35-5.25-3.55a6,6,0,0,0-3.51-1.11c-1,0-2,0-3,0a3.11,3.11,0,0,1-3.15-3.33q0-7.5,0-15a9.06,9.06,0,0,1,.07-1.65A3.15,3.15,0,0,1,8.86,6.43c.36,0,.72,0,1.08,0H32.48a8.62,8.62,0,0,1-.83,1.46c-.15.25-.42.13-.64.13H11.44c-.76,0-1.53,0-2.29,0A1.68,1.68,0,0,0,7.29,9.76a3.08,3.08,0,0,0,0,.38q0,7.82,0,15.63a1.83,1.83,0,0,0,1,1.76.88.88,0,0,0,.46.11h3.18A7.42,7.42,0,0,1,16.3,29c1.73,1.18,3.48,2.34,5.2,3.53a.86.86,0,0,0,1.14,0c1.79-1.24,3.61-2.44,5.42-3.66a6.82,6.82,0,0,1,3.82-1.2c1.06,0,2.12,0,3.18,0a1.65,1.65,0,0,0,1.78-1.73c0-2.12,0-4.23,0-6.35Z"/><path class="cls-1" d="M28.09,18.95a4.65,4.65,0,0,0,.5-1.82A6.69,6.69,0,0,0,29,15.59c.56-1.95,1.89-3.47,2.9-5.17,1.3-2.2,2.7-4.34,4-6.52.25-.41.43-.45.82-.18.94.64,1.92,1.23,2.9,1.82.29.18.43.3.2.67-2.17,3.45-4.31,6.92-6.47,10.38a10,10,0,0,1-2.14,2c-.57.5-1.18,1-1.77,1.44-.3.25-.62.5-1,.3s-.32-.59-.29-1a2,2,0,0,0,0-.32A.05.05,0,0,0,28.09,18.95Zm2.39-1.37a4.85,4.85,0,0,0,1.23-1c.42-.11.46-.31.1-.55s-.78-.49-1.16-.75-.36-.15-.41.16a10.34,10.34,0,0,1-.29,1.41C29.78,17.35,30,17.53,30.48,17.58Z"/><path class="cls-1" d="M22,23.75H12c-.68,0-1-.25-1-.76a.7.7,0,0,1,.64-.8,7.22,7.22,0,0,1,.82,0h19.3c1,0,1.31.21,1.31.79s-.36.79-1.31.79Z"/><path class="cls-1" d="M29.05,12.06c-.31.5-.58.9-.81,1.32-.13.24-.33.22-.54.22H12c-.54,0-.91-.19-.94-.78s.32-.8.92-.8H28.7Z"/><path class="cls-1" d="M23.15,17A1.72,1.72,0,0,0,24,17a5.7,5.7,0,0,0,1.43,0h.35l1.3.07-.09.62-.16.65c-.08.29-.31.28-.54.28l-1.74,0-.67,0-1,0h-.27l-1.12,0H16.4l-.66,0a4.39,4.39,0,0,0-1.24,0H12.69l-1,0c-.48-.15-.76-.44-.65-1s.48-.61.95-.6.83,0,1.25,0H14.5a4.47,4.47,0,0,0,1.25,0,1.29,1.29,0,0,0,.65,0h4.07a.67.67,0,0,0,.47,0A10.21,10.21,0,0,0,23.15,17Z"/><path class="cls-1" d="M41.6,2.87a4.09,4.09,0,0,1-.92,1.9c-.1.17-.25.1-.39,0-1.09-.68-2.18-1.36-3.28-2-.24-.15-.24-.27-.11-.5C38,.48,38.31.06,40.23,1.37c.3.2.61.38.9.59A1,1,0,0,1,41.6,2.87Z"/><text class="cls-2" transform="translate(44.92 23.22)"><tspan class="cls-3">R</tspan><tspan x="8.93" y="0">evi</tspan><tspan class="cls-4" x="30.92" y="0">e</tspan><tspan x="40.04" y="0">wStore</tspan></text></svg>