<?xml version="1.0" encoding="utf-8"?>
<!-- Generator: Adobe Illustrator 21.0.0, SVG Export Plug-In . SVG Version: 6.00 Build 0)  -->
<svg version="1.1" id="Layer_1" xmlns="http://www.w3.org/2000/svg" xmlns:xlink="http://www.w3.org/1999/xlink" x="0px" y="0px"
	 viewBox="0 0 140 35" style="enable-background:new 0 0 140 35;" xml:space="preserve">
<style type="text/css">
	.st0{fill:#000080;}
	.st1{fill:#F4F4F4;}
	.st2{fill:#F7F7F7;}
	.st3{fill:#F9F9F9;}
</style>
<g>
	<g>
		<path class="st0" d="M37.1,11.2c0,5.2,0,10.1,0,15c0,2.2-1.3,3.4-3.5,3.4c-0.8,0-1.6,0-2.4,0c-1.7-0.1-3.2,0.4-4.6,1.4
			c-1.6,1.1-3.2,2.1-4.8,3.2c-1.2,0.9-2.4,0.8-3.6,0c-1.6-1.1-3.2-2.1-4.7-3.3c-1.3-1-2.8-1.4-4.5-1.4c-0.9,0-1.8,0-2.8,0
			c-1.9-0.1-3.1-1.3-3.1-3.1c-0.1-5.7-0.1-11.4,0-17.2c0-2.1,1.5-3.2,3.8-3.3c5.6,0,11.2,0,16.8,0c2,0,4,0,6,0
			c0.3,0,0.7-0.2,0.9,0.2c0.1,0.3-0.2,0.6-0.4,0.9c-0.6,0.7-1.5,0.7-2.3,0.7c-6.6,0-13.2,0-19.8,0c-0.4,0-0.8,0-1.3,0
			C5.6,8,5,8.5,5,9.9c0,5.3,0,10.7,0,16c0,1.4,0.5,1.9,1.9,2C7,28,7.1,28,7.2,28c4.1-0.7,7.3,1.3,10.4,3.6c2.5,1.8,2.5,1.7,5.1,0
			c0.5-0.3,0.9-0.6,1.3-0.9c2.5-2,5.2-3.1,8.4-2.7c0.3,0,0.6,0,0.9-0.1c1.5-0.1,1.9-0.5,1.9-2.1c0-3.3,0-6.7,0-10
			C35.3,13.6,35.4,13.3,37.1,11.2z"/>
		<path class="st0" d="M35.1,3.3c0.8,0.5,1.6,1.1,2.5,1.5c1.1,0.5,1.1,1,0.5,2c-1.9,2.9-3.7,5.9-5.6,8.9c-1.2,1.9-3,3.1-4.7,4.5
			c-0.3,0.3-0.7,0.3-1.1,0.2c-0.3-0.2-0.3-0.6-0.2-0.9c0.4-2.1,0.6-4.2,1.8-6.1c2-3.1,3.9-6.2,5.8-9.3C34.3,3.7,34.4,3.2,35.1,3.3z
			 M30.6,16.3c-0.7-0.5-1.2-0.9-2.1-1.2c0.2,0.9-0.9,1.8,0.1,2.3C29.5,17.9,29.9,16.7,30.6,16.3z"/>
		<path class="st0" d="M20.3,22.4c3.2,0,6.4,0,9.7,0c0.6,0,1.6-0.3,1.6,0.8c0,1-1,0.9-1.6,0.9c-3.6,0-7.2,0-10.8,0
			c-2.7,0-5.4,0-8.1,0c-0.3,0-0.6,0-0.9,0c-0.6-0.1-1.3-0.2-1.2-1c0.1-0.6,0.6-0.8,1.2-0.7c2.7,0,5.3,0,8,0
			C18.9,22.4,19.6,22.4,20.3,22.4z"/>
		<path class="st0" d="M18.4,11.9c2.7,0,5.4,0,8.1,0c0.7,0,0.9,0.2,0.5,0.8c-0.4,0.6-0.8,0.9-1.5,0.9c-5.2,0-10.4,0-15.5,0
			c-0.6,0-1.2-0.1-1.2-0.8c0-0.8,0.6-0.9,1.2-0.9C12.8,11.9,15.6,11.9,18.4,11.9z"/>
		<path class="st0" d="M16.9,18.8c-2.3,0-4.5,0-6.8,0c-0.6,0-1.4,0.1-1.4-0.9c0-0.9,0.7-0.9,1.3-0.9c4.7,0,9.4,0,14.1,0
			c0.4,0,1-0.4,1,0.4c0,0.7-0.3,1.3-1.1,1.3C21.7,18.8,19.3,18.8,16.9,18.8z"/>
		<path class="st0" d="M37.5,0.2c0.9,0.4,2,0.8,2.6,1.7c0.7,0.8,0,1.6-0.5,2.3c-0.5,0.7-1,0.2-1.5-0.1c-0.6-0.4-1.3-0.7-1.9-1.2
			c-0.3-0.3-1.2-0.2-0.8-1C35.9,1.1,36.2,0.1,37.5,0.2z"/>
		<path class="st1" d="M30.6,16.3c-0.7,0.4-1.1,1.6-2,1.1c-1-0.5,0.2-1.5-0.1-2.3C29.4,15.3,30,15.8,30.6,16.3z"/>
	</g>
	<g>
		<path class="st0" d="M48.4,18.2c1.1,1.6,2.1,3.2,3.1,4.8c-1.2,0.4-1.8,0-2.4-1c-0.7-1.3-1.6-2.4-2.7-3.6c0,1.2,0,2.5,0,3.7
			c0,0.6,0,1-0.8,1c-0.9,0-0.7-0.5-0.7-1.1c0-3,0-6,0-9c0-0.8,0.2-1.1,1.1-1c0.9,0.1,1.8-0.1,2.7,0.2c1.6,0.4,2.6,1.4,2.7,2.7
			c0.1,1.4-0.7,2.4-2.3,3C48.9,18.1,48.7,18.2,48.4,18.2z M46.5,15.1c0,2.1,0,2.1,0.8,2c1.5,0,2.5-0.8,2.5-1.9
			c0-1.1-0.9-1.8-2.5-1.9C45.7,13.3,46.9,14.6,46.5,15.1z"/>
		<path class="st0" d="M102.1,23.4c-1.3-0.1-2.5-0.8-3.3-2.3c-0.1-0.3-0.6-0.7,0-0.9c0.4-0.1,1-0.8,1.4,0.1c0.3,0.6,0.7,1.1,1.4,1.4
			c1,0.4,2.2,0.1,2.6-0.8c0.4-1,0-1.8-0.8-2.4c-0.7-0.5-1.6-0.8-2.3-1.2c-1.6-0.9-2.3-2.2-1.9-3.5c0.5-1.4,2.2-2.3,3.9-2
			c0.6,0.1,1.3,0.3,1.8,0.7c0.3,0.2,1,0.4,0.5,1c-0.4,0.4-0.8,1.1-1.5,0.3c-0.4-0.5-1-0.6-1.6-0.5c-0.7,0.1-1.4,0.3-1.6,1.1
			c-0.2,0.7,0.4,1.1,1,1.4c0.9,0.5,1.9,0.9,2.8,1.4c1.4,0.9,1.9,2.4,1.4,3.8C105.3,22.5,104,23.4,102.1,23.4z"/>
		<path class="st0" d="M59.8,21.7c-1.3,1.6-2.9,2.1-4.6,1.4c-1.5-0.6-2.4-2.1-2.3-3.9c0.1-1.7,1.2-3,2.7-3.5
			c2.3-0.6,4.6,1.2,4.7,3.5c0,0.6-0.2,0.6-0.6,0.6c-1.5,0-3,0-4.5,0c-0.3,0-0.6-0.2-0.8,0.2c-0.2,0.3,0.1,0.6,0.3,0.9
			c0.7,1,2.3,1.4,3.4,0.5C58.8,20.9,59.3,21.1,59.8,21.7z M54.3,18.6c1.5,0,2.8,0,4.2,0C57.5,16.6,55.7,16.6,54.3,18.6z"/>
		<path class="st0" d="M80.1,21.7c-1.2,1.6-2.9,2.1-4.6,1.4c-1.5-0.6-2.4-2-2.4-3.8c0-1.7,1.1-3.2,2.7-3.6c2.3-0.7,4.6,1.1,4.7,3.5
			c0,0.6-0.2,0.6-0.6,0.6c-1.5,0-3,0-4.5,0c-0.3,0-0.6-0.2-0.8,0.1c-0.2,0.3,0.1,0.6,0.3,0.9c0.7,1,2.3,1.4,3.4,0.6
			C79.1,20.9,79.6,21.1,80.1,21.7z M79,18.6c-0.6-1.1-1.3-1.6-2.4-1.5c-0.9,0.1-1.6,0.5-1.9,1.5C76.1,18.6,77.5,18.6,79,18.6z"/>
		<path class="st0" d="M134,21.8c-1.3,1.5-3,2-4.7,1.4c-1.5-0.6-2.4-2.1-2.3-3.9c0.1-1.7,1.2-3,2.8-3.5c2.3-0.6,4.6,1.2,4.7,3.6
			c0,0.6-0.3,0.6-0.7,0.6c-1.5,0-3.1,0-4.6,0c-0.9,0-0.8,0.3-0.5,0.9c0.6,1.1,2.3,1.6,3.5,0.7C133.1,20.9,133.5,21.1,134,21.8z
			 M132.9,18.6c-0.6-1.1-1.3-1.6-2.4-1.5c-0.9,0.1-1.6,0.5-1.9,1.5C130.1,18.6,131.4,18.6,132.9,18.6z"/>
		<path class="st0" d="M119.8,19.5c0,2.1-1.8,3.9-3.8,3.9c-2.1,0-3.9-1.8-3.9-3.9c0-2.1,1.9-3.9,3.9-3.9
			C118.1,15.7,119.8,17.4,119.8,19.5z M118.4,19.5c0-1.3-1-2.4-2.4-2.4c-1.3,0-2.4,1.1-2.4,2.4c0,1.2,1.1,2.3,2.3,2.3
			C117.2,21.9,118.3,20.8,118.4,19.5z"/>
		<path class="st0" d="M86.9,15.6c0.7,1.7,1.3,3.1,2,4.8c0.6-1.3,1.2-2.5,1.7-3.7c0.3-0.8,0.8-1.1,1.7-0.7c-1.1,2.4-2.2,4.8-3.5,7.4
			c-0.7-1.6-1.3-3-1.9-4.6c-0.7,1.6-1.2,2.9-1.9,4.6c-1.2-2.6-2.3-5-3.5-7.4c0.9-0.4,1.4,0,1.7,0.8c0.5,1.2,1,2.3,1.7,3.6
			C85.5,18.8,86.2,17.3,86.9,15.6z"/>
		<path class="st0" d="M61.2,16c1.1-0.4,1.7,0,2.1,1c0.4,1,0.9,1.9,1.5,3c0.5-1.1,1.1-2.1,1.4-3.1c0.4-1,1-1.3,2.1-1
			c-1.1,2.4-2.3,4.8-3.5,7.4C63.5,20.8,62.4,18.4,61.2,16z"/>
		<path class="st0" d="M108.3,20.1c0-0.7,0-1.4,0-2.1c0-0.5,0.1-1-0.7-0.9c-0.5,0.1-0.5-0.3-0.5-0.6c0-0.3,0-0.6,0.4-0.6
			c1,0.2,0.8-0.6,0.8-1.1c0-0.5-0.1-1,0.7-1c0.8,0,0.9,0.4,0.8,1c-0.1,0.7,0,1.3,0.9,1.1c0.6-0.1,0.6,0.2,0.6,0.7
			c0,0.6-0.3,0.6-0.7,0.6c-0.8-0.1-0.9,0.3-0.9,0.9c0,1.5,0,2.9,0,4.4c0,0.6-0.2,0.8-0.8,0.8c-0.6,0-0.8-0.2-0.8-0.8
			C108.3,21.6,108.3,20.9,108.3,20.1z"/>
		<path class="st0" d="M123,17.1c0.6-0.8,1-1.4,1.8-1.5c0.3,0,0.9-0.2,0.9,0.2c0,0.4,0.1,1.1-0.7,1.2c-1.7,0.3-2,0.7-2,2.4
			c0,0.9,0,1.8,0,2.8c0,0.7-0.2,0.9-0.8,0.9c-0.7,0-0.7-0.3-0.7-0.8c0-1.8,0-3.6,0-5.4c0-0.4-0.4-1,0.5-1.1
			C122.9,15.8,123.2,16.1,123,17.1z"/>
		<path class="st0" d="M69.8,19.5c0-0.9,0-1.8,0-2.8c0-0.6,0-0.9,0.8-0.9c0.8,0,0.8,0.4,0.8,0.9c0,1.8,0,3.7,0,5.5
			c0,0.6-0.1,0.9-0.8,0.9c-0.8,0-0.8-0.4-0.8-0.9C69.8,21.3,69.8,20.4,69.8,19.5z"/>
		<path class="st0" d="M71.7,13.4c0,0.7-0.4,1.1-1.1,1.2c-0.7,0-1.2-0.4-1.2-1.1c0-0.7,0.4-1.1,1.1-1.1
			C71.2,12.3,71.6,12.7,71.7,13.4z"/>
		<g>
			<path class="st2" d="M46.5,15.1c0.4-0.4-0.8-1.7,0.8-1.7c1.5,0,2.5,0.7,2.5,1.9c0,1.1-1,1.9-2.5,1.9
				C46.5,17.1,46.5,17.1,46.5,15.1z"/>
			<path class="st1" d="M54.3,18.6c1.3-2,3.2-2,4.2,0C57.2,18.6,55.8,18.6,54.3,18.6z"/>
			<path class="st1" d="M79,18.6c-1.5,0-2.8,0-4.3,0c0.3-1,1-1.4,1.9-1.5C77.7,17,78.4,17.5,79,18.6z"/>
			<path class="st1" d="M132.9,18.6c-1.5,0-2.8,0-4.3,0c0.3-1,1-1.4,1.9-1.5C131.6,17,132.3,17.5,132.9,18.6z"/>
			<path class="st3" d="M118.4,19.5c0,1.3-1.1,2.4-2.4,2.4c-1.2,0-2.3-1.1-2.3-2.3c0-1.3,1.1-2.4,2.4-2.4
				C117.3,17.1,118.4,18.2,118.4,19.5z"/>
		</g>
	</g>
</g>
</svg>
